<svg width="40" height="40" viewBox="0 0 40 40" fill="none" xmlns="http://www.w3.org/2000/svg">
<path d="M30 17C30 19.8687 29.0688 22.5188 27.5 24.6688L35.4125 32.5875C36.1937 33.3688 36.1937 34.6375 35.4125 35.4188C34.6312 36.2 33.3625 36.2 32.5812 35.4188L24.6688 27.5C22.5188 29.0688 19.8687 30 17 30C9.81875 30 4 24.1812 4 17C4 9.81875 9.81875 4 17 4C24.1812 4 30 9.81875 30 17ZM17 26C21.9688 26 26 21.9688 26 17C26 12.0312 21.9688 8 17 8C12.0312 8 8 12.0312 8 17C8 21.9688 12.0312 26 17 26Z" fill="#373737"/>
</svg>
