<svg width="24" height="25" viewBox="0 0 24 25" fill="none" xmlns="http://www.w3.org/2000/svg">
<path d="M1.5 2.49545C0.670312 2.49545 0 3.23889 0 4.15909C0 5.07929 0.670312 5.82273 1.5 5.82273H5.56406C6.14062 7.29401 7.4625 8.31818 9 8.31818C10.5375 8.31818 11.8594 7.29401 12.4359 5.82273H22.5C23.3297 5.82273 24 5.07929 24 4.15909C24 3.23889 23.3297 2.49545 22.5 2.49545H12.4359C11.8594 1.02418 10.5375 0 9 0C7.4625 0 6.14062 1.02418 5.56406 2.49545H1.5ZM1.5 10.8136C0.670312 10.8136 0 11.5571 0 12.4773C0 13.3975 0.670312 14.1409 1.5 14.1409H13.0641C13.6406 15.6122 14.9625 16.6364 16.5 16.6364C18.0375 16.6364 19.3594 15.6122 19.9359 14.1409H22.5C23.3297 14.1409 24 13.3975 24 12.4773C24 11.5571 23.3297 10.8136 22.5 10.8136H19.9359C19.3594 9.34236 18.0375 8.31818 16.5 8.31818C14.9625 8.31818 13.6406 9.34236 13.0641 10.8136H1.5ZM1.5 19.1318C0.670312 19.1318 0 19.8753 0 20.7955C0 21.7157 0.670312 22.4591 1.5 22.4591H4.06406C4.64062 23.9304 5.9625 24.9545 7.5 24.9545C9.0375 24.9545 10.3594 23.9304 10.9359 22.4591H22.5C23.3297 22.4591 24 21.7157 24 20.7955C24 19.8753 23.3297 19.1318 22.5 19.1318H10.9359C10.3594 17.6605 9.0375 16.6364 7.5 16.6364C5.9625 16.6364 4.64062 17.6605 4.06406 19.1318H1.5Z" fill="black"/>
</svg>
