<svg width="22" height="25" viewBox="0 0 22 25" fill="none" xmlns="http://www.w3.org/2000/svg">
<path d="M0.00557882 9.13869C0.00557882 4.08964 4.80344 0 10.7171 0C16.6307 0 21.4286 4.08964 21.4286 9.13869C21.4286 14.9194 14.7227 21.8486 11.9221 24.4894C11.2638 25.1096 10.1648 25.1096 9.50645 24.4894C6.70584 21.8486 0 14.9194 0 9.13869H0.00557882ZM10.7171 12.4046C12.6864 12.4046 14.2876 11.0139 14.2876 9.30344C14.2876 7.59297 12.6864 6.20229 10.7171 6.20229C8.74772 6.20229 7.14658 7.59297 7.14658 9.30344C7.14658 11.0139 8.74772 12.4046 10.7171 12.4046Z" fill="#525252"/>
</svg>
